<svg width="386" height="309" viewBox="0 0 386 309" fill="none" xmlns="http://www.w3.org/2000/svg"><path d="M179.214 75.232 37.115 114.745v152.426l142.099-39.513 142.099 39.513V114.745z" fill="#0d0d0d" stroke="#f5f3ef" stroke-width="2" stroke-linecap="round" stroke-linejoin="round"/><path d="M179.214 307.468 37.115 267.955V115.529l142.099 39.518zm0 0 142.099-39.513V115.529l-142.099 39.518z" fill="#0d0d0d" stroke="#f5f3ef" stroke-width="2" stroke-linecap="round" stroke-linejoin="round"/><path d="m75.291 252.991 65.747 18.422v-39.907l-65.747-18.417z" stroke="#f5f3ef" stroke-width="2" stroke-miterlimit="10"/><path d="M109.358 80.534c-1.68-8.066 12.832-17.784 32.416-21.697s36.817-.55 38.501 7.52" stroke="#f5f3ef" stroke-width="2" stroke-linecap="round" stroke-linejoin="round"/><circle cx="139.968" cy="13.234" r="1.644" transform="rotate(-.268 139.968 13.234)" fill="#0d0d0d" stroke="#fff" stroke-width="2"/><circle cx="200.128" cy="12.953" r="1.644" transform="rotate(-.268 200.128 12.953)" fill="#0d0d0d" stroke="#fff" stroke-width="2"/><path d="m133.146 4.478 5.301 9.285 3.04-.014 4.759-9.75c-5.509-4.311-11.029-1.477-13.1.479Zm60.894-.739 5.3 9.285 2.133-.01 5.667-9.755c-5.51-4.31-11.029-1.476-13.1.48Z" fill="#0d0d0d" stroke="#fff" stroke-width="2"/><path d="m304.371 60.432-78.205 90.026-42.408-36.601 77.385-90.583zm-194.491-28.5 34.678 114.097-53.544 16.462L55.428 48.792z" fill="#0d0d0d"/><path d="M146.915 4.656c8.715 21.342 19.413 54.863 34.264 80.464 7.44 12.824 14.895 23.956 21.715 31.508 3.417 3.784 6.536 6.511 9.275 8.127 2.755 1.627 4.711 1.896 6.087 1.558 1.405-.346 2.605-1.269 3.603-3.256 1.052-2.092 1.763-5.177 2.017-9.288.507-8.201-.862-19.32-3.423-31.773-5.106-24.819-12.864-53.868-20.177-73.046l6.92-4.496c7.389 19.376 15.302 50.69 20.519 76.047 2.599 12.636 4.131 24.527 3.563 33.724-.284 4.589-1.105 8.802-2.793 12.161-1.741 3.466-4.49 6.151-8.454 7.128-3.995.984-8-.227-11.632-2.372-3.649-2.154-7.347-5.488-11.009-9.544-7.338-8.126-15.099-19.782-22.626-32.757-15.083-25.998-29.625-57.987-38.414-79.512z" fill="#0d0d0d" stroke="#fff" stroke-width="2"/><rect x="127.31" y="22.418" width="86.931" height="116.35" rx="5.978" transform="rotate(-.268 127.31 22.418)" fill="#0d0d0d" stroke="#fff" stroke-width="1.328"/><path d="M201.549 107.686c-1.967.01-3.326-1.3-3.335-3.304-.01-2.005 1.337-3.314 3.304-3.324 1.968-.009 3.327 1.288 3.336 3.293s-1.337 3.326-3.305 3.335m-.004-.86c.972-.005 1.533-.868 1.526-2.467-.007-1.586-.577-2.444-1.549-2.44-.959.005-1.533.868-1.525 2.454.007 1.599.589 2.457 1.548 2.453m-7.724.896c-1.758.009-2.969-1.252-2.979-3.306-.009-1.931 1.19-3.313 2.948-3.322.763-.003 1.391.264 1.774.693l-.008-1.697c-.004-1.02-.741-.698-.743-1.263-.001-.16.084-.357.367-.358l1.168-.006c.43-.002.678.243.68.673l.031 6.8c.005 1.021.741.698.744 1.264.001.159-.084.357-.367.358l-.676.003c-.64.003-.887-.193-.988-.782-.342.567-1.065.939-1.951.943m.291-.985c.934-.004 1.472-.757 1.464-2.343-.006-1.451-.551-2.322-1.486-2.317s-1.472.88-1.465 2.331c.008 1.586.552 2.334 1.487 2.329m-7.958 1.021c-1.266.006-2.106-.728-2.111-1.834-.006-1.341 1.023-2.059 2.868-2.067.283-.002.676.07.886.131.111.036.172-.013.171-.124l-.002-.455c-.004-.873-.425-1.437-1.064-1.434-1.377.007-1.297 1.494-2.084 1.498-.221.001-.431-.158-.432-.465l-.003-.529c-.004-.935.83-1.344 2.736-1.353 1.23-.006 2.339.542 2.348 2.301l.012 2.631c.002.418.113.541.236.54.172-.001.27-.21.491-.211.172-.001.296.158.297.392.002.492-.401.961-1.188.965-.591.002-1.047-.266-1.259-.917-.391.58-1.078.928-1.902.931m.475-1.109a1.327 1.327 0 0 0 1.334-1.346l-.002-.332c0-.111-.025-.16-.124-.184a3.5 3.5 0 0 0-.873-.082c-.738.003-1.216.387-1.213 1.026.003.554.349.921.878.918m-9.892 3.465c-.283.001-.37-.195-.371-.355-.002-.565.737-.249.732-1.27l-.026-5.546c-.005-1.02-.741-.697-.743-1.263-.001-.16.084-.357.367-.358l.676-.003c.64-.003.886.192.988.782.341-.567 1.065-.94 1.95-.944 1.759-.008 2.971 1.413 2.98 3.344.009 1.992-1.19 3.338-2.948 3.346-.763.003-1.391-.264-1.774-.693l.006 1.328c.005 1.021.962.697.965 1.262.001.16-.109.357-.478.359zm3.305-3.25c.935-.004 1.472-.843 1.465-2.355-.007-1.464-.553-2.371-1.487-2.367-.935.005-1.472.917-1.465 2.381.007 1.512.552 2.346 1.487 2.341m-6.449.805c-.283.002-.37-.195-.371-.354-.003-.566.737-.25.732-1.27l-.014-3.087c-.005-1.021-.742-.697-.744-1.263-.001-.16.084-.357.367-.358l1.168-.006c.431-.002.678.243.68.673l.019 4.034c.004 1.02.741.697.743 1.263.001.16-.084.357-.367.358zm1.06-7.383c-.554.003-.924-.364-.927-.918-.003-.553.365-.924.918-.926s.924.364.927.918c.002.553-.365.924-.918.926m-4.843 7.549c-1.968.009-3.277-1.289-3.287-3.281-.009-1.955 1.165-3.338 3.342-3.348.787-.004 1.538.165 1.945.385.419.219.531.55.533.944l.002.529c.002.307-.207.468-.44.469-.763.004-.708-1.485-2.085-1.478-1.046.005-1.644.831-1.637 2.282.007 1.661.809 2.222 1.904 2.217.737-.003 1.351-.227 1.828-.771.172-.197.294-.321.466-.322.185 0 .296.11.297.331.004.996-1.147 2.035-2.868 2.043m-6.878.032c-1.943.009-3.277-1.288-3.286-3.231-.01-2.005 1.238-3.388 3.07-3.396 1.82-.009 3.068 1.104 3.075 2.74.003.541-.242.727-.685.729l-3.8.017c.093 1.5.894 1.865 1.89 1.861.775-.004 1.352-.252 1.841-.771.184-.198.294-.321.466-.322.271-.001.358.281.249.65-.314 1.084-1.431 1.716-2.82 1.723m1.223-4.076c-.117-1.217-.598-1.694-1.361-1.691-.787.004-1.3.621-1.443 1.704zm-6.586 4.101c-1.192.005-1.86-.791-1.867-2.193l-.015-3.295-.689.003c-.283.001-.468-.17-.469-.428-.003-.591.736-.434 1.262-1.002.624-.667.374-1.453.965-1.456.221 0 .394.134.395.466l.007 1.426 1.697-.008c.209-.001.32.134.321.318l.001.111c.001.357-.194.554-.551.556l-1.439.007.016 3.369c.003.676.238.897.582.895.738-.003.808-.729 1.214-.731.221-.001.37.17.371.404.003.701-.755 1.553-1.801 1.558m-9.641-.103c-.283.002-.37-.195-.371-.355-.003-.565.737-.249.732-1.27l-.015-3.086c-.004-1.021-.741-.698-.743-1.263-.001-.16.084-.357.367-.359l1.057-.005c.431-.002.678.243.68.674l.001.295c.489-.74 1.139-1.125 2.061-1.129 1.574-.007 2.255.986 2.262 2.449l.011 2.398c.005 1.02.741.697.744 1.263.001.16-.085.357-.367.358l-2.214.011c-.283.001-.37-.195-.37-.355-.003-.566.736-.25.731-1.27l-.01-2.201c-.005-1.009-.351-1.548-1.237-1.544-.897.004-1.497.671-1.492 1.765l.009 1.993c.005 1.02.742.697.744 1.263.001.16-.084.357-.367.358zm-8.898.042c-.356.002-.443-.17-.444-.33-.002-.443.625-.519 1.002-1.394l1.971-4.609c.79-1.848-.498-1.325-.502-2.026-.001-.185.158-.382.552-.384l.984-.005c.553-.002.812.156 1.011.635l2.586 6.149c.485 1.153 1.113 1.138 1.115 1.618 0 .147-.109.308-.441.309l-2.079.01c-.393.002-.529-.194-.53-.379-.002-.467.699-.31.401-1.071l-.399-1.019-3.185.015-.34.813c-.438 1.047.335.761.338 1.277.001.185-.134.382-.527.384zm2.419-3.405 2.435-.012-1.207-2.97z" fill="#f5f3ef"/><path d="M188.461 98.494c-1.968.009-3.327-1.3-3.336-3.305-.01-2.004 1.337-3.314 3.305-3.323 1.967-.01 3.326 1.288 3.335 3.292.01 2.004-1.337 3.327-3.304 3.336m-.004-.861c.971-.005 1.533-.868 1.525-2.467-.007-1.586-.577-2.444-1.548-2.44-.96.005-1.534.868-1.526 2.455.007 1.598.589 2.457 1.549 2.452m-6.382.891c-.935.004-1.575-.128-2.031-.31-.308-.135-.457-.38-.458-.736l-.004-.75c-.001-.21.134-.345.306-.346.59-.003.928 1.274 2.441 1.267.578-.002.933-.287.931-.717-.007-1.562-3.656-.733-3.605-3.058-.006-1.168 1.06-1.972 2.561-1.98a5.8 5.8 0 0 1 1.427.166c.32.097.469.269.47.613l.004.775c.001.22-.121.369-.306.37-.578.003-.903-1.115-2.022-1.11-.529.003-.872.3-.87.68.007 1.378 3.593.476 3.606 3.12.005 1.18-.864 2.008-2.45 2.016m-5.68.026c-.935.005-1.575-.128-2.031-.31-.308-.134-.456-.38-.458-.736l-.004-.75c-.001-.209.134-.345.306-.346.59-.002.928 1.275 2.441 1.268.578-.003.933-.287.931-.718-.007-1.561-3.655-.733-3.605-3.057-.005-1.168 1.061-1.973 2.561-1.98a5.8 5.8 0 0 1 1.427.166c.32.097.469.268.47.612l.004.775c.001.221-.121.37-.306.37-.578.003-.903-1.114-2.022-1.11-.528.003-.871.3-.869.681.006 1.378 3.593.475 3.605 3.12.005 1.18-.864 2.008-2.45 2.015m-6.163.029c-1.943.009-3.277-1.288-3.287-3.231-.009-2.005 1.239-3.388 3.071-3.396 1.82-.009 3.067 1.105 3.075 2.74.003.541-.242.727-.685.729l-3.8.017c.093 1.5.894 1.865 1.89 1.86.775-.003 1.352-.251 1.841-.77.184-.198.294-.321.466-.322.271-.001.358.281.249.65-.315 1.084-1.431 1.717-2.82 1.723m1.223-4.076c-.117-1.217-.599-1.694-1.361-1.69-.787.003-1.301.62-1.443 1.703zm-7.889 4.107c-1.968.01-3.277-1.288-3.287-3.28-.009-1.955 1.165-3.338 3.342-3.348.787-.004 1.538.165 1.945.384.419.22.531.55.533.944l.002.53c.002.307-.207.468-.44.469-.763.003-.708-1.485-2.085-1.479-1.046.005-1.644.832-1.638 2.283.008 1.66.81 2.222 1.904 2.217.738-.004 1.352-.228 1.829-.771.171-.198.294-.321.466-.322.184 0 .296.11.297.33.004.997-1.147 2.035-2.868 2.043m-11.534-.094c-.356.002-.443-.17-.444-.33-.002-.442.625-.52 1.002-1.394l1.971-4.608c.79-1.849-.499-1.326-.502-2.027-.001-.184.158-.382.552-.384l.984-.004c.553-.003.812.156 1.011.634l2.586 6.15c.485 1.153 1.113 1.138 1.115 1.617 0 .148-.109.308-.442.31l-2.078.01c-.393.001-.529-.195-.53-.38-.002-.467.699-.31.401-1.071l-.399-1.019-3.185.015-.34.813c-.438 1.047.335.761.338 1.278.001.184-.134.381-.527.383zm2.419-3.405 2.435-.011-1.207-2.97z" fill="#ff4000"/><path d="m133.285 21.892 74.975-.35a6.475 6.475 0 0 1 6.505 6.445l.244 52.032-87.926.41-.243-52.031a6.476 6.476 0 0 1 6.445-6.506Z" fill="#ff4000" stroke="#fff" stroke-width=".332"/><mask id="a" style="mask-type:alpha" maskUnits="userSpaceOnUse" x="126" y="21" width="90" height="60"><rect x="126.808" y="21.923" width="87.927" height="58.507" rx="3.559" transform="rotate(-.268 126.808 21.923)" fill="#ff4000" stroke="#fff" stroke-width=".332"/></mask><g mask="url(#a)"><path d="M170.911 68.46c-8.403.04-15.174 7.025-15.134 15.596s6.883 15.493 15.279 15.454c8.403-.039 15.174-7.025 15.134-15.596s-6.876-15.492-15.279-15.453Zm-28.998 15.263c-.022-1.794.059-6.506 1.676-12.422h.001c1.803-6.157 4.957-12.812 9.483-18.023h.001l.006-.008c.031-.045.062-.083.102-.13l.242-.267h.001l.096-.103.098-.107 1.439-1.597c.066-.074.161-.072.24-.015.079.058.115.154.067.246-.783 1.518-.859 2.484-.622 3.102.239.621.779.855 1.132.943.193.047.393.051.587.013q.227-.045.43-.142l.13-.071c.44-.268.859-.744 1.304-1.74.477-1.081 1.062-2.799 2.405-6.546h.001c2.373-6.282 7.059-11.11 13.551-13.963l.003-.002c.068-.032.15-.012.21.055h.001a.19.19 0 0 1 .011.231l-.002.002c-.821 1.218-2.349 4.785-2.516 9.867l-.011.497c-.014.803.032 1.943.29 3.091.241 1.075.671 2.166 1.422 2.992l.155.163c.695.684 1.834 1.055 2.976.978 1.068-.072 2-.52 2.642-1.272l.124-.155c.803-1.047.989-2.256.976-3.2a7 7 0 0 0-.118-1.173c-.027-.146-.056-.264-.076-.346l-.025-.096-.008-.025-.002-.008-.002-.007-.011-.062a.18.18 0 0 1 .077-.151.19.19 0 0 1 .168-.03l.049.027c.097.078 2.024 1.573 3.659 4.788 1.02 1.995 1.583 3.848 2.042 5.339.257.837.488 1.591.753 2.235s.567 1.187.972 1.6c.178.184.379.31.592.397l.006.002c.824.284 1.694-.28 1.955-1.056l.002-.008c.159-.645-.074-1.287-.322-1.791h.001l-.002-.003-.022-.07a.19.19 0 0 1 .087-.175c.079-.055.173-.053.236.026l.002.003c.425.501 1.149 1.589 1.771 2.557.31.482.593.934.799 1.264l.244.394.084.136.005.01h.001a43.4 43.4 0 0 1 4.754 10.82c1.122 3.935 1.793 8.051 1.817 13.112.037 7.932-2.957 15.399-8.419 21.034s-12.751 8.755-20.511 8.791-15.078-3.022-20.592-8.599c-5.522-5.584-8.578-13.022-8.615-20.954z" fill="#0d0d0d" stroke="#fff" stroke-width=".205"/></g><rect x="127.647" y="22.753" width="86.259" height="115.679" rx="5.642" transform="rotate(-.268 127.647 22.753)" stroke="#fff" stroke-width="2"/><path d="m290.556 43.555-30.772 115.211-54.167-14.281 29.79-115.353z" fill="#ff4000" stroke="#f5f3ef" stroke-width="2" stroke-miterlimit="10"/><circle cx="248.443" cy="93.603" r="15.883" transform="rotate(15 248.443 93.603)" fill="#0d0d0d" stroke="#f5f3ef" stroke-width="2"/><mask id="b" maskUnits="userSpaceOnUse" x="212.767" y="36.889" width="71.867" height="114.294" fill="#000"><path fill="#fff" d="M212.767 36.889h71.867v114.294h-71.867z"/><path d="M274.411 48.125a9.39 9.39 0 0 0 5.175 8.963L257.155 140.8a9.39 9.39 0 0 0-8.96 5.172l-25.726-6.893a9.39 9.39 0 0 0-5.177-8.963l22.431-83.712a9.39 9.39 0 0 0 8.962-5.172z"/></mask><path d="m274.411 48.125 1.996.124.1-1.632-1.579-.423zm5.175 8.963 1.931.517.424-1.58-1.464-.728zM257.155 140.8l-.123 1.996 1.632.1.423-1.579zm-8.96 5.172-.518 1.932 1.579.423.729-1.463zm-25.726-6.893-1.996-.123-.101 1.632 1.58.423zm-5.177-8.963-1.932-.517-.423 1.58 1.464.728zm22.431-83.712.123-1.996-1.632-.1-.423 1.579zm8.962-5.172.518-1.931-1.579-.424-.729 1.464zm25.726 6.893-1.997-.123a11.39 11.39 0 0 0 6.28 10.876l.892-1.79.891-1.79a7.39 7.39 0 0 1-4.07-7.05zm5.175 8.963-1.932-.518-22.431 83.712 1.932.518 1.932.517 22.43-83.712zM257.155 140.8l.123-1.997a11.39 11.39 0 0 0-10.874 6.277l1.791.892 1.79.892a7.39 7.39 0 0 1 7.047-4.068zm-8.96 5.172.517-1.932-25.725-6.893-.518 1.932-.517 1.932 25.725 6.893zm-25.726-6.893 1.996.123a11.39 11.39 0 0 0-6.282-10.876l-.891 1.79-.891 1.791a7.39 7.39 0 0 1 4.072 7.049zm-5.177-8.963 1.932.518 22.431-83.712-1.932-.518-1.932-.517-22.431 83.712zm22.431-83.712-.124 1.996c4.546.282 8.846-2.2 10.876-6.276l-1.79-.892-1.79-.891a7.39 7.39 0 0 1-7.049 4.067zm8.962-5.172-.517 1.932 25.725 6.893.518-1.932.517-1.931-25.725-6.894z" fill="#f5f3ef" mask="url(#b)"/><mask id="c" fill="#fff"><path d="M150.453 152.492a6.8 6.8 0 0 0-12.057 6.285l-3.119 1.625a6.798 6.798 0 0 0-12.056 6.286l-3.121 1.626a6.797 6.797 0 0 0-9.17-2.884 6.797 6.797 0 0 0-2.886 9.169l-7.071 3.686L34.65 51.055l7.071-3.686v.002a6.799 6.799 0 1 0 12.057-6.286l3.118-1.626a6.8 6.8 0 1 0 12.058-6.285l3.118-1.626a6.799 6.799 0 1 0 12.058-6.285l7.066-3.685 66.324 127.23z"/></mask><path d="M150.453 152.492a6.8 6.8 0 0 0-12.057 6.285l-3.119 1.625a6.798 6.798 0 0 0-12.056 6.286l-3.121 1.626a6.797 6.797 0 0 0-9.17-2.884 6.797 6.797 0 0 0-2.886 9.169l-7.071 3.686L34.65 51.055l7.071-3.686v.002a6.799 6.799 0 1 0 12.057-6.286l3.118-1.626a6.8 6.8 0 1 0 12.058-6.285l3.118-1.626a6.799 6.799 0 1 0 12.058-6.285l7.066-3.685 66.324 127.23z" fill="#f5f3ef"/><path d="m150.453 152.492-1.774.925.925 1.773 1.773-.925zm-9.172-2.885-.924-1.774zm-2.885 9.17.924 1.773 1.773-.924-.924-1.773zm-3.119 1.625-1.773.925.925 1.773 1.773-.924zm-9.17-2.884-.925-1.773zm-2.886 9.17.924 1.773 1.773-.924-.924-1.774zm-3.121 1.626-1.773.925.925 1.773 1.773-.925zm-9.17-2.884-.925-1.774zm-2.886 9.169.924 1.774 1.773-.925-.924-1.773zm-7.071 3.686-1.773.924.924 1.774 1.774-.925zM34.65 51.055l-.925-1.773-1.773.925.924 1.773zm7.071-3.686 1.908.6 1.45-4.605-4.282 2.232zm0 .002-1.908-.6-.249.79.383.734zm9.171 2.886.925 1.773zm2.886-9.172 1.774-.924zm0 0-.925-1.774-1.773.924.925 1.774zm3.118-1.626 1.774-.925-.925-1.773-1.773.924zm9.171 2.887.925 1.774zm2.887-9.172 1.774-.925zm0 0L68.03 31.4l-1.774.924.924 1.774zm3.118-1.626 1.774-.925-.925-1.773-1.773.924zm9.171 2.887.925 1.773zm2.887-9.172 1.773-.924zm0 0-.925-1.774-1.774.924.925 1.774zm7.066-3.685 1.774-.924-.925-1.774-1.773.925zm66.324 127.23.924 1.773 1.774-.924-.925-1.774zm-7.067 3.684 1.773-.925a8.8 8.8 0 0 0-11.869-3.734l.924 1.774.925 1.773a4.8 4.8 0 0 1 6.473 2.037zm-9.172-2.885-.924-1.774a8.8 8.8 0 0 0-3.735 11.868l1.774-.924 1.773-.924a4.8 4.8 0 0 1 2.037-6.473zm-2.885 9.17-.925-1.774-3.118 1.626.924 1.773.925 1.774 3.118-1.626zm-3.119 1.625 1.774-.925a8.8 8.8 0 0 0-11.869-3.732l.925 1.773.924 1.774a4.8 4.8 0 0 1 6.473 2.035zm-9.17-2.884-.925-1.773a8.797 8.797 0 0 0-3.735 11.867l1.774-.924 1.773-.925a4.797 4.797 0 0 1 2.037-6.471zm-2.886 9.17-.925-1.774-3.12 1.626.924 1.774.925 1.773 3.12-1.626zm-3.121 1.626 1.774-.925a8.8 8.8 0 0 0-11.869-3.733l.925 1.774.924 1.773a4.8 4.8 0 0 1 6.473 2.036zm-9.17-2.884-.925-1.774a8.8 8.8 0 0 0-3.735 11.867l1.774-.924 1.773-.924a4.8 4.8 0 0 1 2.037-6.472zm-2.886 9.169-.925-1.773-7.07 3.685.924 1.774.925 1.773 7.07-3.685zm-7.071 3.686 1.774-.925L36.423 50.131l-1.773.925-1.774.924L99.2 179.21zM34.65 51.055l.924 1.774 7.072-3.686-.925-1.774-.924-1.773-7.072 3.686zm7.071-3.686-1.908-.6v.001l1.908.6 1.908.601v-.001zm0 .002-1.774.924a8.8 8.8 0 0 0 11.87 3.735l-.925-1.773-.924-1.774a4.8 4.8 0 0 1-6.474-2.037zm9.171 2.886.925 1.773a8.8 8.8 0 0 0 3.735-11.87l-1.774.925-1.773.925a4.8 4.8 0 0 1-2.037 6.473zm2.886-9.172 1.774-.924v-.001zl-1.773.925zm0 0 .925 1.773 3.118-1.626-.925-1.773-.924-1.774-3.119 1.626zm3.118-1.626-1.773.924a8.8 8.8 0 0 0 11.869 3.737l-.925-1.774-.924-1.773a4.8 4.8 0 0 1-6.473-2.039zm9.171 2.887.925 1.774a8.8 8.8 0 0 0 3.736-11.87l-1.774.924-1.773.925a4.8 4.8 0 0 1-2.038 6.474zm2.887-9.172 1.774-.925zl-1.773.925zm0 0 .925 1.773 3.118-1.626-.925-1.773-.924-1.774L68.03 31.4zm3.118-1.626-1.773.924a8.8 8.8 0 0 0 11.869 3.736l-.925-1.773-.924-1.774a4.8 4.8 0 0 1-6.473-2.038zm9.171 2.887.925 1.773a8.8 8.8 0 0 0 3.735-11.87l-1.773.925-1.774.925a4.8 4.8 0 0 1-2.037 6.473zm2.887-9.172 1.773-.924v-.001zl-1.773.925zm0 0 .924 1.773 7.067-3.684-.925-1.774-.924-1.773-7.067 3.684zm7.066-3.685-1.773.925 66.323 127.229 1.774-.924 1.773-.925L92.97 20.653zm66.324 127.23-.925-1.774-7.067 3.684.925 1.774.924 1.773 7.067-3.684z" fill="#0d0d0d" mask="url(#c)"/><path d="m51.83 70.55 45.69-23.743m-2.414 106.245 45.688-23.742" stroke="#0d0d0d" stroke-width="2"/><rect x="132.437" y="28.092" width="15.371" height="1.488" rx=".744" transform="rotate(-.268 132.437 28.092)" fill="#0d0d0d" stroke="#fff" stroke-width="1.488"/><rect x="192.762" y="27.81" width="15.371" height="1.488" rx=".744" transform="rotate(-.268 192.762 27.81)" fill="#0d0d0d" stroke="#fff" stroke-width="1.488"/><path d="M135.333 28.792 133.318 14.3c-.563-4.046 2.568-7.66 6.652-7.678 4.005-.02 7.144 3.433 6.747 7.418l-1.467 14.705zm60.161-.282-2.016-14.49c-.563-4.046 2.568-7.66 6.652-7.679 4.005-.018 7.145 3.434 6.747 7.419l-1.467 14.704z" fill="#0d0d0d" stroke="#fff" stroke-width="2"/><path d="m153.772 205.666-141.046-39.71 25.442-50.427 141.047 39.715z" fill="#0d0d0d" stroke="#f5f3ef" stroke-width="2" stroke-linecap="round" stroke-linejoin="round"/><path d="m204.984 205.666 142.84-39.71-25.771-50.427-142.839 39.715z" fill="#0d0d0d" stroke="#f5f3ef" stroke-width="2" stroke-linecap="round" stroke-linejoin="round"/><path d="m323.637 240.868-.241 16.909 16.684-2.759-13.371 10.353 12.56 11.324-16.432-3.998-1.022 16.879-7.119-15.339-13.834 9.725 7.554-15.13-16.229-4.753 16.539-3.526-6.403-15.652 13.069 10.731z" fill="#f5f3ef"/><path d="m323.396 257.777 16.684-2.759-13.371 10.353 12.56 11.324-16.431-3.998-1.023 16.879-7.119-15.339-13.834 9.725 7.554-15.13-16.229-4.753 16.539-3.526-6.403-15.652 13.07 10.731 8.244-14.764zm-7.604-.032-10.126-8.316 4.961 12.128-12.815 2.733 12.575 3.683-5.853 11.721 10.719-7.534 5.515 11.884.793-13.077 12.731 3.098-9.731-8.774 10.359-8.023-12.927 2.139.187-13.101z" fill="#0d0d0d"/><circle cx="7.953" cy="7.953" r="6.953" transform="matrix(-1 0 0 1 352.066 85.836)" fill="#ff4000" stroke="#f5f3ef" stroke-width="2"/><circle cx="6.363" cy="6.363" r="5.363" transform="matrix(-1 0 0 1 352.066 51.902)" fill="#ff4000" stroke="#f5f3ef" stroke-width="2"/><path d="m354.487 197.734.158.432.43.161 28.075 10.52-28.075 10.52-.43.161-.158.433-10.375 28.391-10.373-28.391-.158-.433-.431-.161-28.076-10.52 28.076-10.52.431-.161.158-.432 10.373-28.392zM32.408 255.099l.295 1.145 1.08-.48 14.009-6.236-9.288 11.991-.745.962 1.088.545 13.652 6.839-15.34.348-1.2.027.244 1.177 3.076 14.795-9.885-11.606-.762-.894-.762.894-9.886 11.605 3.076-14.794.245-1.177-1.2-.027-15.341-.348 13.654-6.839 1.087-.545-.745-.962-9.29-11.991 14.01 6.236 1.08.48.296-1.145 3.776-14.668z" fill="#ff4000" stroke="#f5f3ef" stroke-width="2"/></svg>